<?xml version="1.0" encoding="UTF-8" standalone="no"?>
<!DOCTYPE svg PUBLIC "-//W3C//DTD SVG 1.1//EN" "http://www.w3.org/Graphics/SVG/1.1/DTD/svg11.dtd">
<svg width="800.00" height="600.00" viewBox="0.00 0.00 800.00 600.00" xmlns="http://www.w3.org/2000/svg" xmlns:xlink="http://www.w3.org/1999/xlink">
<g stroke-linecap="round" id="Capa_2_-_copia">
<path d="M311.46,577.50 C307.43,576.33 288.80,569.85 281.30,566.93 C273.86,563.84 259.33,557.22 252.25,553.69 C248.10,551.57 231.81,541.80 225.15,537.46 C218.56,532.95 205.80,523.55 199.66,518.68 C193.63,513.73 182.29,503.06 176.76,497.51 C171.34,491.80 160.93,480.03 156.00,474.03 C149.31,465.48 142.43,455.35 138.28,448.84 C134.27,442.20 126.71,428.60 123.21,421.73 C118.33,411.52 115.26,404.20 111.42,393.61 C108.99,386.34 104.63,371.53 102.74,364.09 C101.05,356.66 98.71,344.83 97.39,334.26 C96.63,326.69 95.68,311.37 95.49,303.70 C95.49,296.07 96.02,280.94 96.81,273.43 C97.76,265.90 100.24,250.78 101.77,243.22 C103.47,235.75 108.25,218.07 109.73,213.83 C112.33,206.67 118.11,192.43 121.29,185.34 C124.63,178.35 133.52,161.51 135.59,158.09 C137.66,154.68 148.50,138.89 153.18,132.63 C158.02,126.44 168.08,114.52 173.28,108.77 C176.40,105.42 190.09,92.56 196.04,87.39 C202.15,82.31 214.67,72.63 221.06,68.04 C227.50,63.59 241.02,55.50 247.97,51.64 C255.06,47.91 269.50,40.92 276.78,37.71 C287.05,33.45 298.42,29.55 305.62,27.29 C312.91,25.16 327.71,21.35 335.14,19.69 C342.56,18.20 354.34,16.13 364.91,14.93 C372.46,14.23 387.73,13.32 395.40,13.10 C403.03,13.04 421.25,13.52 425.67,13.92 C433.18,14.67 448.24,16.66 455.80,17.90 C463.33,19.30 478.15,22.56 485.45,24.40 C489.82,25.56 507.96,31.64 515.47,34.47 C522.96,37.48 537.61,43.95 544.75,47.40 C551.78,50.96 565.35,58.98 572.05,63.23 C578.67,67.65 591.59,76.93 597.81,81.74 C606.35,88.67 615.43,97.10 621.01,102.57 C626.48,108.20 637.05,119.87 642.08,125.84 C649.23,134.76 653.95,141.25 660.19,150.77 C664.27,157.34 671.99,170.86 675.59,177.71 C678.99,184.60 684.04,195.65 687.82,205.67 C690.34,212.89 694.87,227.63 696.86,235.07 C698.65,242.50 701.70,257.36 702.69,264.85 C703.54,272.40 704.67,287.66 704.96,295.35 C705.06,303.00 704.56,321.24 704.11,325.69 C703.26,333.21 700.98,348.31 699.54,355.89 C697.92,363.41 693.22,381.70 692.01,385.47 C690.80,389.23 683.93,406.90 680.85,414.00 C677.58,421.04 670.58,434.79 666.86,441.48 C664.61,445.41 654.29,460.83 649.70,467.13 C644.94,473.36 635.01,485.44 629.86,491.25 C624.62,496.95 613.35,507.69 607.48,512.92 C601.45,518.04 589.01,527.89 582.67,532.56 C573.63,538.89 562.93,545.40 556.04,549.33 C549.02,553.13 534.65,560.28 527.39,563.59 C516.65,568.18 509.17,570.99 498.52,574.48 C491.27,576.67 476.52,580.63 469.10,582.38 C461.68,583.96 446.84,586.66 439.37,587.55 C431.84,588.32 416.63,589.39 408.95,589.69 C401.30,589.83 382.47,589.53 378.60,589.27 C374.74,589.01 356.05,586.78 348.50,585.62 C333.38,582.97 312.94,577.92 311.46,577.50 Z" fill="none" stroke="rgb(212, 137, 71)" stroke-width="20.00" stroke-opacity="1.00" stroke-linejoin="round"/>
<path d="M191.74,92.25 L186.33,103.55" fill="none" stroke="rgb(212, 137, 71)" stroke-width="20.00" stroke-opacity="1.00" stroke-linejoin="round"/>
<path d="M400.00,586.00" fill="none" stroke="rgb(212, 137, 71)" stroke-width="20.00" stroke-opacity="1.00" stroke-linejoin="round"/>
<path d="M596.00,86.00" fill="none" stroke="rgb(212, 137, 71)" stroke-width="20.00" stroke-opacity="1.00" stroke-linejoin="round"/>
<path d="M120.86,409.88 L685.00,395.00" fill="none" stroke="rgb(212, 137, 71)" stroke-width="20.00" stroke-opacity="1.00" stroke-linejoin="round"/>
<path d="M158.54,426.90 L659.00,414.00" fill="none" stroke="rgb(212, 137, 71)" stroke-width="50.00" stroke-opacity="1.00" stroke-linejoin="round"/>
<path d="M165.36,457.39 L647.00,444.00" fill="none" stroke="rgb(212, 137, 71)" stroke-width="50.00" stroke-opacity="1.00" stroke-linejoin="round"/>
<path d="M190.71,484.25 L628.00,467.00" fill="none" stroke="rgb(212, 137, 71)" stroke-width="50.00" stroke-opacity="1.00" stroke-linejoin="round"/>
<path d="M233.97,518.83 L603.00,497.00" fill="none" stroke="rgb(212, 137, 71)" stroke-width="50.00" stroke-opacity="1.00" stroke-linejoin="round"/>
<path d="M274.93,544.98 L572.00,524.00" fill="none" stroke="rgb(212, 137, 71)" stroke-width="50.00" stroke-opacity="1.00" stroke-linejoin="round"/>
<path d="M327.85,556.68 L518.00,546.00" fill="none" stroke="rgb(212, 137, 71)" stroke-width="50.00" stroke-opacity="1.00" stroke-linejoin="round"/>
<path d="M136.85,417.48 C134.75,415.20 131.38,415.29 129.93,416.07 C129.88,417.32 133.68,422.09 135.20,423.78 C137.49,426.30 145.83,433.26 146.21,433.66 C146.45,433.91 146.75,434.34 147.11,434.93" fill="none" stroke="rgb(212, 137, 71)" stroke-width="20.00" stroke-opacity="1.00" stroke-linejoin="round"/>
<path d="M204.49,500.72 C204.79,502.64 208.35,506.57 209.88,509.64 C211.38,512.68 212.22,516.39 212.48,517.82 C212.48,517.82 202.44,504.75 202.44,504.75 C204.98,507.23 209.32,511.49 210.06,511.99 C210.57,512.32 211.73,512.94 213.53,513.85 C213.53,513.85 213.98,513.39 213.98,513.39" fill="none" stroke="rgb(212, 137, 71)" stroke-width="20.00" stroke-opacity="1.00" stroke-linejoin="round"/>
<path d="M373.90,575.45 C374.75,574.63 375.75,574.25 377.36,574.35 C380.18,574.53 385.83,575.75 390.09,575.61 C398.90,575.28 437.92,567.14 450.42,566.35 C462.27,565.73 464.29,565.69 467.91,565.74 C465.06,568.94 462.25,571.72 459.65,573.02 C456.77,574.43 438.91,580.21 433.74,580.41 C431.66,580.48 414.03,579.96 405.46,580.43 C401.89,580.63 394.66,580.93 391.41,580.47 C389.62,580.21 382.63,576.62 381.81,576.22 C379.23,575.00 374.69,576.44 372.66,577.24 C363.58,578.95 359.67,579.98 359.44,580.40 C359.33,580.63 359.22,581.28 359.13,582.34" fill="none" stroke="rgb(212, 137, 71)" stroke-width="20.00" stroke-opacity="1.00" stroke-linejoin="round"/>
<path d="M373.27,89.08 L383.90,373.67" fill="none" stroke="rgb(212, 137, 71)" stroke-width="15.00" stroke-opacity="1.00" stroke-linejoin="round"/>
<path d="M384.76,373.89 C384.76,373.89 383.73,374.22 383.73,374.22 C384.57,375.52 389.55,376.51 393.93,376.96 C398.56,377.43 417.79,377.75 425.77,377.68 C432.74,377.48 447.26,376.39 453.18,375.27 C460.56,373.85 475.72,368.95 480.78,366.82 C484.22,365.37 497.64,358.41 503.20,354.15 C511.84,347.48 521.30,339.69 525.83,335.06 C533.00,327.70 553.79,302.09 563.43,289.36 C568.04,282.91 577.47,269.86 580.69,267.08" fill="none" stroke="rgb(212, 137, 71)" stroke-width="20.00" stroke-opacity="1.00" stroke-linejoin="round"/>
<path d="M383.47,371.87 C382.98,368.08 383.34,364.26 384.86,359.18 C386.94,352.27 391.58,343.02 396.17,336.97 C401.28,330.27 410.63,320.62 416.32,315.44 C422.85,309.52 433.65,301.08 440.31,296.89 C446.73,292.88 458.39,287.00 467.19,282.91 C474.07,279.83 489.40,273.10 494.28,271.19 C500.88,268.66 515.07,264.76 521.66,263.52 C525.49,262.80 544.42,260.19 551.98,259.24 C558.75,258.46 571.09,258.97 576.16,260.35 C577.28,260.67 586.24,263.50 589.52,264.54 C590.67,264.90 591.82,265.26 592.97,265.62" fill="none" stroke="rgb(212, 137, 71)" stroke-width="20.00" stroke-opacity="1.00" stroke-linejoin="round"/>
<path d="M379.26,279.54 C382.33,279.66 387.88,280.35 389.52,280.32 C397.51,280.25 416.02,278.60 419.89,278.08 C424.84,277.39 442.27,273.28 445.56,272.31 C451.19,270.64 463.44,265.92 470.94,262.49 C477.75,259.24 493.47,251.36 497.34,249.18 C502.89,245.92 515.98,237.66 521.27,233.96 C528.61,228.73 555.44,205.95 567.63,195.33 C572.16,191.26 577.77,186.21 577.98,185.99 C578.13,185.83 578.34,185.57 578.62,185.21" fill="none" stroke="rgb(212, 137, 71)" stroke-width="20.00" stroke-opacity="1.00" stroke-linejoin="round"/>
<path d="M384.36,280.28 C384.42,278.15 383.70,273.21 383.25,270.63 C382.94,267.78 384.33,261.90 386.06,257.53 C386.98,255.23 391.11,246.52 391.62,245.52 C393.38,242.14 395.87,238.66 398.52,235.87 C405.11,228.98 414.61,221.59 421.30,217.32 C424.45,215.32 438.00,207.35 446.26,203.17 C453.87,199.50 471.55,191.13 474.92,189.72 C478.40,188.28 496.41,183.85 499.99,183.38 C502.48,183.07 522.59,182.03 530.38,181.61 C534.46,181.33 554.70,180.27 560.81,180.82 C565.99,181.31 580.87,184.07 581.10,184.10 C581.49,184.16 582.29,184.24 583.50,184.36" fill="none" stroke="rgb(212, 137, 71)" stroke-width="20.00" stroke-opacity="1.00" stroke-linejoin="round"/>
<path d="M375.21,178.65 C375.21,178.65 375.87,176.71 375.87,176.71 C379.34,175.88 382.10,175.40 384.59,175.92 C385.70,176.16 395.24,178.54 399.41,179.57 C404.03,180.63 408.59,181.14 413.91,181.21 C423.41,181.14 456.24,177.06 472.04,174.76 C482.00,173.22 489.83,171.53 498.19,168.83 C505.66,166.31 519.03,161.24 524.83,158.82 C532.63,155.45 562.22,139.95 572.15,134.62 C575.24,132.92 579.55,130.54 580.77,129.87" fill="none" stroke="rgb(212, 137, 71)" stroke-width="20.00" stroke-opacity="1.00" stroke-linejoin="round"/>
<path d="M370.84,173.02 C370.84,173.02 368.84,172.39 368.84,172.39 C368.23,170.37 369.52,166.24 371.52,163.37 C374.45,159.29 384.51,148.85 389.00,144.90 C393.23,141.18 404.63,133.19 411.60,129.47 C417.55,126.31 430.17,120.46 436.97,117.80 C445.15,114.61 459.15,110.55 466.46,109.38 C473.16,108.32 484.60,107.80 495.17,107.86 C503.29,108.10 515.58,109.36 522.59,110.13 C530.31,111.13 545.63,113.61 552.30,114.94 C559.02,116.36 570.85,120.14 576.32,122.51 C576.73,122.69 577.55,123.06 578.78,123.63" fill="none" stroke="rgb(212, 137, 71)" stroke-width="20.00" stroke-opacity="1.00" stroke-linejoin="round"/>
<path d="M376.75,373.89 C374.93,373.40 372.26,372.73 367.06,372.91 C366.21,372.94 346.37,373.91 339.77,373.48 C330.84,372.87 318.49,369.99 312.80,367.58 C307.67,365.38 295.82,358.22 289.25,353.51 C285.11,350.49 273.51,340.85 269.38,336.35 C265.18,331.72 259.02,322.26 255.64,315.94 C254.16,313.05 251.06,306.76 249.43,303.36 C245.97,295.85 243.86,286.78 243.80,286.38 C243.75,286.05 243.71,285.49 243.68,284.69" fill="none" stroke="rgb(212, 137, 71)" stroke-width="20.00" stroke-opacity="1.00" stroke-linejoin="round"/>
<path d="M246.35,290.38 C253.02,287.88 260.34,286.47 270.20,285.43 C279.64,284.67 290.36,284.23 296.00,284.55 C304.23,285.05 315.39,287.37 323.67,290.04 C329.67,292.02 338.65,296.24 348.37,301.38 C356.84,306.01 364.89,310.93 371.88,315.88 C375.50,318.51 380.27,322.59 382.51,324.97 C386.59,329.37 391.63,337.78 393.31,341.04 C394.35,343.06 395.08,344.30 396.45,346.41" fill="none" stroke="rgb(212, 137, 71)" stroke-width="20.00" stroke-opacity="1.00" stroke-linejoin="round"/>
<path d="M365.90,276.09 C362.22,275.56 355.79,275.21 355.47,275.19 C351.49,274.94 337.08,270.16 329.62,267.62 C321.30,264.65 307.74,258.75 303.88,256.82 C300.43,255.09 286.11,247.00 281.20,243.46 C272.99,237.49 257.59,222.09 254.52,217.90 C253.44,216.41 250.37,211.73 249.80,210.85" fill="none" stroke="rgb(212, 137, 71)" stroke-width="20.00" stroke-opacity="1.00" stroke-linejoin="round"/>
<path d="M256.47,214.26 C255.85,213.69 255.11,212.05 255.23,210.97 C255.45,209.50 260.73,204.76 264.90,202.94 C267.80,201.71 287.64,197.18 291.86,196.44 C299.15,195.18 312.91,194.56 319.62,195.49 C326.42,196.46 335.56,199.14 344.84,202.88 C355.76,207.42 365.97,212.03 371.40,215.12 C373.03,216.06 376.28,218.02 377.85,218.98 C379.62,220.07 380.49,220.50 381.44,220.81" fill="none" stroke="rgb(212, 137, 71)" stroke-width="20.00" stroke-opacity="1.00" stroke-linejoin="round"/>
<path d="M361.53,184.50 C356.24,183.42 349.75,182.14 335.85,180.66 C327.16,179.65 311.48,177.67 304.65,176.25 C298.53,174.97 285.41,170.53 278.78,166.99 C272.14,163.42 259.96,154.23 255.16,149.28 C250.79,144.72 243.15,133.13 240.59,127.35 C239.93,125.81 238.85,123.29 238.43,122.29" fill="none" stroke="rgb(212, 137, 71)" stroke-width="20.00" stroke-opacity="1.00" stroke-linejoin="round"/>
<path d="M243.86,114.86 C245.93,113.32 247.31,112.54 249.18,112.05 C258.22,109.70 268.13,108.23 276.98,108.06 C284.57,107.99 300.49,108.88 306.59,110.30 C313.77,112.00 327.24,117.01 333.30,120.74 C336.13,122.51 354.44,135.04 356.06,135.97 C358.27,137.23 365.11,140.59 368.00,141.85 C371.49,143.36 378.71,145.60 380.71,146.01 C381.03,146.07 381.56,146.14 382.31,146.22" fill="none" stroke="rgb(212, 137, 71)" stroke-width="20.00" stroke-opacity="1.00" stroke-linejoin="round"/>
<path d="M355.22,136.90 C354.86,136.60 353.51,135.51 352.70,134.88 C350.02,132.79 346.77,129.05 345.01,125.97 C343.95,124.07 341.42,118.14 340.39,114.62 C339.20,110.49 338.32,104.32 338.29,99.98 C338.29,94.09 340.12,81.79 341.69,75.73 C343.76,67.91 348.26,56.42 351.39,50.96 C354.23,46.04 364.04,32.65 367.42,30.55 C368.88,29.66 371.43,28.73 372.99,28.37 C372.99,28.37 375.31,30.52 375.31,30.52" fill="none" stroke="rgb(212, 137, 71)" stroke-width="20.00" stroke-opacity="1.00" stroke-linejoin="round"/>
<path d="M422.24,121.15 C423.93,118.75 425.82,114.32 427.26,109.10 C428.36,104.95 428.66,100.61 428.28,96.56 C427.60,89.86 423.36,75.68 420.92,70.06 C417.81,63.00 410.46,53.01 407.95,51.10 C402.37,46.90 395.79,43.52 386.79,40.26 C377.68,36.94 375.09,35.16 374.66,34.82" fill="none" stroke="rgb(212, 137, 71)" stroke-width="20.00" stroke-opacity="1.00" stroke-linejoin="round"/>
<path d="M126.75,398.43 L598.67,84.00" fill="none" stroke="rgb(212, 137, 71)" stroke-width="20.00" stroke-opacity="1.00" stroke-linejoin="round"/>
<path d="M236.02,416.16 C234.99,416.33 233.45,414.87 230.04,414.32 C229.28,414.20 219.22,412.94 216.49,412.82 C213.33,412.70 205.96,413.75 203.06,414.64 C199.83,415.67 195.75,417.50 192.92,419.20 C190.39,420.77 186.11,425.02 184.66,428.26 C183.30,431.47 182.82,436.83 182.82,441.23 C182.90,448.74 183.19,464.38 183.90,470.74 C184.33,474.44 185.44,479.57 186.74,482.64 C187.99,485.54 189.35,487.64 191.86,490.50 C197.48,496.90 203.77,502.17 207.63,503.80 C209.86,504.72 214.55,505.85 216.80,506.08 C219.08,506.30 224.07,506.11 226.73,505.58 C229.32,505.04 232.60,503.75 235.08,502.38 C237.41,501.06 241.66,496.73 243.60,493.58 C244.92,491.36 247.02,485.09 247.72,480.32 C249.04,471.03 249.14,460.73 248.39,459.65 C247.49,458.44 245.61,456.98 244.31,456.53 C241.62,455.69 235.62,456.10 231.18,456.86 C228.01,457.42 223.42,457.15 222.57,457.87 C222.34,458.07 221.94,458.57 221.38,459.38" fill="none" stroke="rgb(255, 255, 255)" stroke-width="20.00" stroke-opacity="1.00" stroke-linejoin="round"/>
<path d="M285.01,407.12 C285.30,410.32 286.37,445.69 286.44,457.05 C286.22,472.87 285.80,496.28 286.23,498.25 C286.75,498.49 302.23,497.09 309.79,497.11 C316.20,497.13 336.90,498.78 337.94,499.12 C338.19,499.21 338.61,499.43 339.20,499.79" fill="none" stroke="rgb(255, 255, 255)" stroke-width="20.00" stroke-opacity="1.00" stroke-linejoin="round"/>
<path d="M364.33,407.83 C362.99,412.63 362.26,416.05 362.21,420.98 C362.20,428.23 362.30,443.12 362.73,448.37 C363.26,454.73 365.39,467.89 367.83,473.99 C368.82,476.42 372.58,483.97 373.72,485.71 C374.51,486.91 377.86,490.67 379.52,491.94 C381.32,493.31 385.13,495.10 387.30,495.67 C389.43,496.21 393.64,496.55 395.61,496.24 C397.70,495.87 401.82,494.02 403.96,492.39 C407.65,489.52 416.53,478.81 419.66,472.85 C421.50,469.30 424.22,462.62 425.10,459.49 C426.25,455.20 427.21,450.96 427.41,447.29 C427.76,440.00 426.97,430.57 425.24,421.72 C424.83,419.72 422.50,408.17 422.46,405.92 C422.46,405.92 422.48,408.55 422.48,408.55" fill="none" stroke="rgb(255, 255, 255)" stroke-width="20.00" stroke-opacity="1.00" stroke-linejoin="round"/>
<path d="M456.22,409.05 C456.22,409.05 456.63,408.57 456.63,408.57 C457.77,408.40 505.18,408.18 508.69,408.70 C509.64,408.85 511.93,409.25 512.82,409.40" fill="none" stroke="rgb(255, 255, 255)" stroke-width="20.00" stroke-opacity="1.00" stroke-linejoin="round"/>
<path d="M480.41,406.71 C478.81,413.35 481.21,488.61 481.24,488.87 C481.56,492.47 482.43,495.64 482.80,496.84 C482.67,497.08 482.23,497.24 481.90,497.33 C481.54,497.52 481.33,498.06 481.31,498.59" fill="none" stroke="rgb(255, 255, 255)" stroke-width="20.00" stroke-opacity="1.00" stroke-linejoin="round"/>
<path d="M581.77,400.75 C581.77,400.75 538.83,405.54 538.83,405.54 C540.47,407.05 540.18,418.30 539.41,431.75 C539.12,439.68 539.08,456.55 539.29,460.52 C540.05,473.35 542.78,490.63 543.49,492.10 C544.53,490.97 554.48,488.93 563.37,487.40 C572.76,485.91 585.14,484.54 591.40,483.92 C591.40,483.92 590.05,483.30 590.05,483.30" fill="none" stroke="rgb(255, 255, 255)" stroke-width="20.00" stroke-opacity="1.00" stroke-linejoin="round"/>
<path d="M539.18,447.18 C539.83,447.18 546.27,446.02 550.90,445.53 C559.41,444.67 569.39,443.67 570.87,443.52 C572.19,443.39 573.51,443.26 574.84,443.13" fill="none" stroke="rgb(255, 255, 255)" stroke-width="20.00" stroke-opacity="1.00" stroke-linejoin="round"/>
<path d="M612.99,480.69 C612.99,480.69 612.04,480.31 612.04,480.31 C612.48,478.52 612.36,477.40 611.41,473.95 C608.37,462.35 605.72,429.83 604.01,418.10 C602.73,409.24 603.56,400.38 603.48,400.16 C603.17,401.60 608.10,413.82 611.27,419.36 C613.01,422.37 625.56,442.04 627.70,445.07 C633.44,453.11 639.44,459.92 644.39,463.11 C645.21,463.64 646.79,464.65 647.54,465.12 C648.65,464.59 650.33,448.52 650.23,442.33 C650.10,435.66 648.90,428.12 646.52,414.79 C645.89,411.15 644.91,404.39 643.68,401.83 C643.54,401.54 643.40,401.31 643.25,401.13" fill="none" stroke="rgb(255, 255, 255)" stroke-width="20.00" stroke-opacity="1.00" stroke-linejoin="round"/>
<path d="M305.05,519.41 C305.05,519.41 305.05,518.83 305.05,518.83 C305.29,526.09 304.86,541.76 305.23,547.99 C307.40,576.18 307.50,580.50 307.59,582.19" fill="none" stroke="rgb(255, 255, 255)" stroke-width="20.00" stroke-opacity="1.00" stroke-linejoin="round"/>
<path d="M303.92,521.07 C303.92,521.07 302.93,519.89 302.93,519.89 C308.28,520.35 326.38,517.94 328.73,517.70 C330.58,517.53 350.63,519.10 351.88,519.37" fill="none" stroke="rgb(255, 255, 255)" stroke-width="20.00" stroke-opacity="1.00" stroke-linejoin="round"/>
<path d="M307.23,552.63 C307.23,552.63 306.54,552.27 306.54,552.27 C308.93,552.48 316.01,553.70 316.62,553.78 C317.85,553.93 336.41,552.45 342.61,552.97 C343.23,553.02 346.26,553.36 346.54,553.45 C346.77,553.52 346.98,553.69 347.18,553.96" fill="none" stroke="rgb(255, 255, 255)" stroke-width="20.00" stroke-opacity="1.00" stroke-linejoin="round"/>
<path d="M376.91,519.36 C376.91,519.36 375.68,516.51 375.68,516.51 C375.02,520.97 375.25,532.81 375.76,543.05 C377.06,564.92 379.89,587.40 380.26,588.65" fill="none" stroke="rgb(255, 255, 255)" stroke-width="20.00" stroke-opacity="1.00" stroke-linejoin="round"/>
<path d="M373.84,527.93 C373.46,526.66 373.41,525.30 373.96,524.66 C374.55,523.98 380.85,521.07 383.49,520.16 C386.30,519.23 393.39,518.10 395.24,518.14 C397.60,518.23 402.66,520.89 404.26,523.19 C406.05,525.80 407.26,531.10 407.35,532.99 C407.43,535.20 406.78,539.22 406.00,541.38 C405.19,543.55 403.27,546.72 401.48,548.78 C399.73,550.75 395.77,553.74 393.39,554.98 C389.71,556.83 384.05,557.24 383.33,557.20 C387.64,556.51 391.10,556.42 394.37,557.04 C397.45,557.66 403.37,560.62 405.84,562.91 C408.40,565.34 411.90,570.32 413.48,573.71 C417.41,582.35 420.11,586.74 420.21,587.06 C420.21,587.06 424.13,585.22 424.13,585.22" fill="none" stroke="rgb(255, 255, 255)" stroke-width="20.00" stroke-opacity="1.00" stroke-linejoin="round"/>
<path d="M466.92,516.16 C466.92,516.16 466.61,515.60 466.61,515.60 C463.61,515.60 441.78,522.14 441.71,522.17 C439.80,522.86 439.19,523.62 439.40,525.23 C439.42,525.39 445.32,578.90 445.22,581.01 C445.62,581.63 447.21,581.64 449.60,580.87 C449.80,580.80 458.43,577.60 462.54,576.58 C465.95,575.74 483.47,572.06 486.16,572.14" fill="none" stroke="rgb(255, 255, 255)" stroke-width="20.00" stroke-opacity="1.00" stroke-linejoin="round"/>
<path d="M444.76,553.33 C445.29,552.34 453.57,550.81 455.59,550.38 C457.12,550.05 464.13,547.82 467.53,546.85 C469.12,546.40 470.51,546.05 471.72,545.78" fill="none" stroke="rgb(255, 255, 255)" stroke-width="20.00" stroke-opacity="1.00" stroke-linejoin="round"/>
<path d="M533.70,510.02 C531.11,510.40 529.26,510.87 526.69,511.85 C521.29,513.88 517.90,514.83 513.74,515.41 C505.77,516.44 498.70,517.01 497.89,517.12 C497.64,517.45 499.34,521.14 500.14,523.81 C501.38,528.04 503.09,547.28 503.75,555.27 C504.20,559.89 505.55,565.94 506.44,567.06 C507.59,568.38 509.21,568.92 510.60,568.33 C517.97,565.10 535.72,557.35 538.15,556.37" fill="none" stroke="rgb(255, 255, 255)" stroke-width="20.00" stroke-opacity="1.00" stroke-linejoin="round"/>
<path d="M501.90,541.94 C504.30,541.39 508.41,540.31 513.04,538.96 C516.46,537.93 525.53,534.74 525.70,534.69 C526.01,534.58 526.54,534.42 527.27,534.20" fill="none" stroke="rgb(255, 255, 255)" stroke-width="20.00" stroke-opacity="1.00" stroke-linejoin="round"/>
</g>
</svg>
