<?xml version="1.0" encoding="UTF-8" standalone="no"?>
<!DOCTYPE svg PUBLIC "-//W3C//DTD SVG 1.1//EN" "http://www.w3.org/Graphics/SVG/1.1/DTD/svg11.dtd">
<svg width="800.00" height="600.00" viewBox="0.00 0.00 800.00 600.00" xmlns="http://www.w3.org/2000/svg" xmlns:xlink="http://www.w3.org/1999/xlink">
<g stroke-linecap="round" id="Capa_2_-_copia">
<path d="M311.46,577.50 C307.43,576.33 288.80,569.85 281.30,566.93 C273.86,563.84 259.33,557.22 252.25,553.69 C248.10,551.57 231.81,541.80 225.15,537.46 C218.56,532.95 205.80,523.55 199.66,518.68 C193.63,513.73 182.29,503.06 176.76,497.51 C171.34,491.80 160.93,480.03 156.00,474.03 C149.31,465.48 142.43,455.35 138.28,448.84 C134.27,442.20 126.71,428.60 123.21,421.73 C118.33,411.52 115.26,404.20 111.42,393.61 C108.99,386.34 104.63,371.53 102.74,364.09 C101.05,356.66 98.71,344.83 97.39,334.26 C96.63,326.69 95.68,311.37 95.49,303.70 C95.49,296.07 96.02,280.94 96.81,273.43 C97.76,265.90 100.24,250.78 101.77,243.22 C103.47,235.75 108.25,218.07 109.73,213.83 C112.33,206.67 118.11,192.43 121.29,185.34 C124.63,178.35 133.52,161.51 135.59,158.09 C137.66,154.68 148.50,138.89 153.18,132.63 C158.02,126.44 168.08,114.52 173.28,108.77 C176.40,105.42 190.09,92.56 196.04,87.39 C202.15,82.31 214.67,72.63 221.06,68.04 C227.50,63.59 241.02,55.50 247.97,51.64 C255.06,47.91 269.50,40.92 276.78,37.71 C287.05,33.45 298.42,29.55 305.62,27.29 C312.91,25.16 327.71,21.35 335.14,19.69 C342.56,18.20 354.34,16.13 364.91,14.93 C372.46,14.23 387.73,13.32 395.40,13.10 C403.03,13.04 421.25,13.52 425.67,13.92 C433.18,14.67 448.24,16.66 455.80,17.90 C463.33,19.30 478.15,22.56 485.45,24.40 C489.82,25.56 507.96,31.64 515.47,34.47 C522.96,37.48 537.61,43.95 544.75,47.40 C551.78,50.96 565.35,58.98 572.05,63.23 C578.67,67.65 591.59,76.93 597.81,81.74 C606.35,88.67 615.43,97.10 621.01,102.57 C626.48,108.20 637.05,119.87 642.08,125.84 C649.23,134.76 653.95,141.25 660.19,150.77 C664.27,157.34 671.99,170.86 675.59,177.71 C678.99,184.60 684.04,195.65 687.82,205.67 C690.34,212.89 694.87,227.63 696.86,235.07 C698.65,242.50 701.70,257.36 702.69,264.85 C703.54,272.40 704.67,287.66 704.96,295.35 C705.06,303.00 704.56,321.24 704.11,325.69 C703.26,333.21 700.98,348.31 699.54,355.89 C697.92,363.41 693.22,381.70 692.01,385.47 C690.80,389.23 683.93,406.90 680.85,414.00 C677.58,421.04 670.58,434.79 666.86,441.48 C664.61,445.41 654.29,460.83 649.70,467.13 C644.94,473.36 635.01,485.44 629.86,491.25 C624.62,496.95 613.35,507.69 607.48,512.92 C601.45,518.04 589.01,527.89 582.67,532.56 C573.63,538.89 562.93,545.40 556.04,549.33 C549.02,553.13 534.65,560.28 527.39,563.59 C516.65,568.18 509.17,570.99 498.52,574.48 C491.27,576.67 476.52,580.63 469.10,582.38 C461.68,583.96 446.84,586.66 439.37,587.55 C431.84,588.32 416.63,589.39 408.95,589.69 C401.30,589.83 382.47,589.53 378.60,589.27 C374.74,589.01 356.05,586.78 348.50,585.62 C333.38,582.97 312.94,577.92 311.46,577.50 Z" fill="none" stroke="rgb(32, 148, 225)" stroke-width="20.00" stroke-opacity="1.00" stroke-linejoin="round"/>
<path d="M191.74,92.25 L186.33,103.55" fill="none" stroke="rgb(32, 148, 225)" stroke-width="20.00" stroke-opacity="1.00" stroke-linejoin="round"/>
<path d="M400.00,586.00" fill="none" stroke="rgb(32, 148, 225)" stroke-width="20.00" stroke-opacity="1.00" stroke-linejoin="round"/>
<path d="M596.00,86.00" fill="none" stroke="rgb(32, 148, 225)" stroke-width="20.00" stroke-opacity="1.00" stroke-linejoin="round"/>
<path d="M120.86,409.88 L685.00,395.00" fill="none" stroke="rgb(32, 148, 225)" stroke-width="20.00" stroke-opacity="1.00" stroke-linejoin="round"/>
<path d="M158.54,426.90 L659.00,414.00" fill="none" stroke="rgb(32, 148, 225)" stroke-width="50.00" stroke-opacity="1.00" stroke-linejoin="round"/>
<path d="M165.36,457.39 L647.00,444.00" fill="none" stroke="rgb(32, 148, 225)" stroke-width="50.00" stroke-opacity="1.00" stroke-linejoin="round"/>
<path d="M190.71,484.25 L628.00,467.00" fill="none" stroke="rgb(32, 148, 225)" stroke-width="50.00" stroke-opacity="1.00" stroke-linejoin="round"/>
<path d="M233.97,518.83 L603.00,497.00" fill="none" stroke="rgb(32, 148, 225)" stroke-width="50.00" stroke-opacity="1.00" stroke-linejoin="round"/>
<path d="M274.93,544.98 L572.00,524.00" fill="none" stroke="rgb(32, 148, 225)" stroke-width="50.00" stroke-opacity="1.00" stroke-linejoin="round"/>
<path d="M327.85,556.68 L518.00,546.00" fill="none" stroke="rgb(32, 148, 225)" stroke-width="50.00" stroke-opacity="1.00" stroke-linejoin="round"/>
<path d="M136.85,417.48 C134.75,415.20 131.38,415.29 129.93,416.07 C129.88,417.32 133.68,422.09 135.20,423.78 C137.49,426.30 145.83,433.26 146.21,433.66 C146.45,433.91 146.75,434.34 147.11,434.93" fill="none" stroke="rgb(32, 148, 225)" stroke-width="20.00" stroke-opacity="1.00" stroke-linejoin="round"/>
<path d="M204.49,500.72 C204.79,502.64 208.35,506.57 209.88,509.64 C211.38,512.68 212.22,516.39 212.48,517.82 C212.48,517.82 202.44,504.75 202.44,504.75 C204.98,507.23 209.32,511.49 210.06,511.99 C210.57,512.32 211.73,512.94 213.53,513.85 C213.53,513.85 213.98,513.39 213.98,513.39" fill="none" stroke="rgb(32, 148, 225)" stroke-width="20.00" stroke-opacity="1.00" stroke-linejoin="round"/>
<path d="M373.90,575.45 C374.75,574.63 375.75,574.25 377.36,574.35 C380.18,574.53 385.83,575.75 390.09,575.61 C398.90,575.28 437.92,567.14 450.42,566.35 C462.27,565.73 464.29,565.69 467.91,565.74 C465.06,568.94 462.25,571.72 459.65,573.02 C456.77,574.43 438.91,580.21 433.74,580.41 C431.66,580.48 414.03,579.96 405.46,580.43 C401.89,580.63 394.66,580.93 391.41,580.47 C389.62,580.21 382.63,576.62 381.81,576.22 C379.23,575.00 374.69,576.44 372.66,577.24 C363.58,578.95 359.67,579.98 359.44,580.40 C359.33,580.63 359.22,581.28 359.13,582.34" fill="none" stroke="rgb(32, 148, 225)" stroke-width="20.00" stroke-opacity="1.00" stroke-linejoin="round"/>
<path d="M324.04,80.58 L471.94,80.44" fill="none" stroke="rgb(32, 148, 225)" stroke-width="24.90" stroke-opacity="1.00" stroke-linejoin="round"/>
<path d="M338.72,88.19 L312.25,169.23" fill="none" stroke="rgb(32, 148, 225)" stroke-width="15.00" stroke-opacity="1.00" stroke-linejoin="round"/>
<path d="M448.81,84.65 L482.67,165.06" fill="none" stroke="rgb(32, 148, 225)" stroke-width="15.00" stroke-opacity="1.00" stroke-linejoin="round"/>
<path d="M312.63,169.80 L315.22,359.92" fill="none" stroke="rgb(32, 148, 225)" stroke-width="15.00" stroke-opacity="1.00" stroke-linejoin="round"/>
<path d="M483.46,165.68 L484.46,357.53" fill="none" stroke="rgb(32, 148, 225)" stroke-width="15.00" stroke-opacity="1.00" stroke-linejoin="round"/>
<path d="M314.90,359.07 L482.67,359.92" fill="none" stroke="rgb(32, 148, 225)" stroke-width="15.00" stroke-opacity="1.00" stroke-linejoin="round"/>
<path d="M310.78,169.06 L478.50,169.23" fill="none" stroke="rgb(32, 148, 225)" stroke-width="15.00" stroke-opacity="1.00" stroke-linejoin="round"/>
<path d="M123.20,399.32 L598.19,91.73" fill="none" stroke="rgb(32, 148, 225)" stroke-width="15.00" stroke-opacity="1.00" stroke-linejoin="round"/>
<path d="M183.84,406.44 C183.37,407.13 183.02,408.03 183.04,408.87 C183.32,412.19 183.38,428.87 184.21,435.44 C184.85,440.52 187.72,496.37 188.41,497.70 C195.71,496.86 212.42,497.25 213.80,497.20 C218.78,497.02 221.97,497.65 224.39,499.18 C224.60,499.32 224.90,499.49 225.30,499.68" fill="none" stroke="rgb(255, 255, 255)" stroke-width="20.00" stroke-opacity="1.00" stroke-linejoin="round"/>
<path d="M246.03,501.33 C246.03,501.33 245.05,502.14 245.05,502.14 C247.10,493.66 251.44,466.61 256.37,443.36 C257.84,435.41 261.56,421.15 262.79,418.03 C264.08,414.80 266.57,411.44 268.12,409.06 C268.39,410.55 268.51,414.69 269.39,417.39 C274.31,432.40 283.66,462.31 288.09,477.21 C290.59,485.26 295.93,496.55 295.08,496.52 C295.08,496.52 293.73,495.83 293.73,495.83" fill="none" stroke="rgb(255, 255, 255)" stroke-width="20.00" stroke-opacity="1.00" stroke-linejoin="round"/>
<path d="M255.24,464.33 C258.96,465.01 273.58,464.76 278.71,464.80 C279.07,464.78 279.63,464.73 280.39,464.63" fill="none" stroke="rgb(255, 255, 255)" stroke-width="20.00" stroke-opacity="1.00" stroke-linejoin="round"/>
<path d="M361.72,408.53 C361.72,408.53 361.52,407.88 361.52,407.88 C360.86,407.57 350.53,408.37 348.85,408.64 C345.16,409.24 339.06,412.00 337.31,413.24 C334.95,414.96 331.86,419.24 329.93,423.50 C327.25,429.52 323.60,443.36 323.12,451.27 C322.68,459.13 324.46,473.74 326.44,480.99 C327.54,484.91 330.26,491.87 331.45,493.71 C332.33,495.02 334.76,497.01 336.29,497.62 C340.46,499.19 355.32,499.46 364.27,498.36 C368.04,497.87 374.21,497.05 375.39,496.99 C375.45,496.99 375.48,496.98 375.46,496.97" fill="none" stroke="rgb(255, 255, 255)" stroke-width="20.00" stroke-opacity="1.00" stroke-linejoin="round"/>
<path d="M415.01,405.47 C414.80,410.50 417.26,451.07 418.23,468.22 C418.69,479.62 417.97,490.28 417.96,493.66" fill="none" stroke="rgb(255, 255, 255)" stroke-width="20.00" stroke-opacity="1.00" stroke-linejoin="round"/>
<path d="M387.14,407.62 C387.88,406.90 433.85,405.98 441.56,405.26 C444.26,405.01 453.15,404.60 453.79,404.59 C453.96,404.59 454.14,404.65 454.32,404.76" fill="none" stroke="rgb(255, 255, 255)" stroke-width="20.00" stroke-opacity="1.00" stroke-linejoin="round"/>
<path d="M490.51,403.80 C487.55,403.70 484.62,404.09 482.67,405.29 C480.65,406.58 475.72,411.12 474.26,413.32 C471.76,417.13 467.06,432.30 465.89,440.01 C465.19,444.73 465.08,459.57 465.94,465.02 C466.43,468.00 468.78,475.49 470.33,478.65 C471.98,481.94 476.07,486.93 477.53,488.08 C480.90,490.68 487.02,493.15 491.05,493.24 C492.86,493.25 497.26,492.32 499.49,491.45 C502.87,490.09 510.15,484.50 513.78,479.81 C515.55,477.48 518.13,472.17 519.01,469.27 C520.68,463.71 521.86,450.35 521.60,443.70 C521.45,440.45 520.51,434.54 519.96,432.57 C519.09,429.52 516.49,423.40 514.45,420.55 C513.59,419.36 506.81,411.03 505.53,409.22 C505.25,408.82 504.47,407.74 503.66,406.94" fill="none" stroke="rgb(255, 255, 255)" stroke-width="20.00" stroke-opacity="1.00" stroke-linejoin="round"/>
<path d="M505.75,408.09 C505.43,407.71 499.42,404.73 498.71,404.36 C494.01,401.97 486.57,403.93 485.46,404.29" fill="none" stroke="rgb(255, 255, 255)" stroke-width="20.00" stroke-opacity="1.00" stroke-linejoin="round"/>
<path d="M579.26,405.50 C578.73,404.77 577.25,402.73 576.76,402.16 C575.37,400.57 573.37,398.83 572.36,398.51 C570.11,397.87 564.02,398.84 562.16,399.61 C560.26,400.42 555.12,403.64 553.05,405.52 C550.77,407.63 545.76,415.35 544.98,418.28 C544.49,420.23 544.44,423.84 544.88,425.60 C545.65,428.50 548.63,433.57 550.50,435.31 C552.77,437.37 557.33,438.62 561.82,439.04 C563.51,439.19 572.43,440.04 575.20,441.49 C578.46,443.27 582.57,448.84 583.69,451.89 C585.91,458.02 587.19,469.01 586.81,473.84 C586.41,478.48 585.03,483.03 582.85,484.58 C579.68,486.76 564.66,490.80 560.59,490.91 C557.74,490.96 553.11,489.92 548.52,488.34 C544.47,487.09 542.27,487.16 541.73,487.28" fill="none" stroke="rgb(255, 255, 255)" stroke-width="20.00" stroke-opacity="1.00" stroke-linejoin="round"/>
<path d="M642.89,399.56 C642.89,399.56 642.61,398.96 642.61,398.96 C638.98,397.43 610.59,402.34 610.08,402.92 C609.75,404.95 610.63,421.79 611.30,429.47 C612.15,436.85 613.96,454.50 614.19,459.50 C614.62,471.26 615.70,478.83 616.90,479.39 C618.41,478.89 623.31,476.66 626.33,475.94 C629.25,475.26 634.33,474.82 637.29,475.09" fill="none" stroke="rgb(255, 255, 255)" stroke-width="20.00" stroke-opacity="1.00" stroke-linejoin="round"/>
<path d="M611.56,441.88 C612.92,441.54 627.86,440.70 639.03,439.29 C642.62,438.82 647.32,438.20 648.45,438.06 C649.00,438.00 649.54,437.94 650.09,437.88" fill="none" stroke="rgb(255, 255, 255)" stroke-width="20.00" stroke-opacity="1.00" stroke-linejoin="round"/>
<path d="M322.85,522.12 C322.99,522.69 323.09,523.54 323.14,524.76 C323.25,527.77 322.15,565.27 322.53,579.22 C322.52,581.16 322.21,584.19 322.17,584.87" fill="none" stroke="rgb(255, 255, 255)" stroke-width="20.00" stroke-opacity="1.00" stroke-linejoin="round"/>
<path d="M320.08,526.86 C320.67,525.97 325.23,524.85 327.90,524.43 C331.02,523.95 351.01,524.76 356.66,524.44 C359.32,524.28 360.64,524.49 362.54,525.20 C362.54,525.20 362.84,526.99 362.84,526.99" fill="none" stroke="rgb(255, 255, 255)" stroke-width="20.00" stroke-opacity="1.00" stroke-linejoin="round"/>
<path d="M327.08,550.12 C328.13,550.16 351.33,548.32 353.40,548.88 C354.33,549.15 354.76,550.26 354.90,551.85" fill="none" stroke="rgb(255, 255, 255)" stroke-width="20.00" stroke-opacity="1.00" stroke-linejoin="round"/>
<path d="M380.72,530.06 C380.14,533.92 382.61,547.24 383.47,557.17 C383.97,564.53 385.08,581.19 385.12,582.83 C385.13,583.09 385.13,583.36 385.13,583.65" fill="none" stroke="rgb(255, 255, 255)" stroke-width="20.00" stroke-opacity="1.00" stroke-linejoin="round"/>
<path d="M380.78,533.65 C380.61,531.40 380.84,529.97 381.77,528.84 C383.46,526.82 388.23,523.78 390.39,523.21 C392.29,522.75 396.32,523.12 398.78,523.81 C401.60,524.64 406.47,527.23 408.28,529.89 C409.15,531.21 410.15,534.05 410.30,535.54 C410.52,538.41 408.38,544.90 406.20,547.00 C404.14,548.92 397.17,552.34 393.41,553.20 C396.80,552.09 401.88,552.03 403.88,552.57 C406.49,553.32 410.19,555.71 412.30,557.98 C414.01,559.88 416.06,563.62 418.14,568.28 C419.56,571.53 423.37,581.14 423.83,582.02 C424.02,582.40 424.27,582.68 424.56,582.88" fill="none" stroke="rgb(255, 255, 255)" stroke-width="20.00" stroke-opacity="1.00" stroke-linejoin="round"/>
<path d="M471.17,519.83 C469.16,520.05 465.24,519.98 460.02,519.51 C454.44,518.97 448.02,518.13 447.95,518.14 C446.41,518.34 444.24,519.66 443.50,520.84 C442.79,522.04 442.58,525.45 442.68,530.88 C443.31,552.51 443.43,565.47 444.15,575.61 C444.25,576.77 444.65,577.48 445.50,578.39 C448.06,578.10 455.12,576.15 458.33,575.60 C464.18,574.63 472.86,573.95 475.11,573.73" fill="none" stroke="rgb(255, 255, 255)" stroke-width="20.00" stroke-opacity="1.00" stroke-linejoin="round"/>
<path d="M443.70,547.35 C446.58,547.23 453.62,548.36 454.56,548.45 C455.74,548.55 458.92,548.44 459.72,548.33 C459.94,548.30 460.18,548.24 460.44,548.15" fill="none" stroke="rgb(255, 255, 255)" stroke-width="20.00" stroke-opacity="1.00" stroke-linejoin="round"/>
<path d="M524.62,518.30 C521.78,518.28 515.05,518.23 511.16,518.20 C507.33,518.19 503.90,518.41 501.75,519.37 C501.75,519.37 504.69,566.95 504.69,566.95 C504.69,566.95 523.47,564.06 523.47,564.06" fill="none" stroke="rgb(255, 255, 255)" stroke-width="20.00" stroke-opacity="1.00" stroke-linejoin="round"/>
<path d="M507.16,544.18 C510.84,544.29 517.16,544.49 517.83,544.45 C518.30,544.42 519.10,544.31 520.25,544.12" fill="none" stroke="rgb(255, 255, 255)" stroke-width="20.00" stroke-opacity="1.00" stroke-linejoin="round"/>
</g>
</svg>
