<?xml version="1.0" encoding="UTF-8" standalone="no"?>
<!DOCTYPE svg PUBLIC "-//W3C//DTD SVG 1.1//EN" "http://www.w3.org/Graphics/SVG/1.1/DTD/svg11.dtd">
<svg width="800.00" height="600.00" viewBox="0.00 0.00 800.00 600.00" xmlns="http://www.w3.org/2000/svg" xmlns:xlink="http://www.w3.org/1999/xlink">
<g stroke-linecap="round" id="Capa_2_-_copia">
<path d="M311.46,577.50 C307.43,576.33 288.80,569.85 281.30,566.93 C273.86,563.84 259.33,557.22 252.25,553.69 C248.10,551.57 231.81,541.80 225.15,537.46 C218.56,532.95 205.80,523.55 199.66,518.68 C193.63,513.73 182.29,503.06 176.76,497.51 C171.34,491.80 160.93,480.03 156.00,474.03 C149.31,465.48 142.43,455.35 138.28,448.84 C134.27,442.20 126.71,428.60 123.21,421.73 C118.33,411.52 115.26,404.20 111.42,393.61 C108.99,386.34 104.63,371.53 102.74,364.09 C101.05,356.66 98.71,344.83 97.39,334.26 C96.63,326.69 95.68,311.37 95.49,303.70 C95.49,296.07 96.02,280.94 96.81,273.43 C97.76,265.90 100.24,250.78 101.77,243.22 C103.47,235.75 108.25,218.07 109.73,213.83 C112.33,206.67 118.11,192.43 121.29,185.34 C124.63,178.35 133.52,161.51 135.59,158.09 C137.66,154.68 148.50,138.89 153.18,132.63 C158.02,126.44 168.08,114.52 173.28,108.77 C176.40,105.42 190.09,92.56 196.04,87.39 C202.15,82.31 214.67,72.63 221.06,68.04 C227.50,63.59 241.02,55.50 247.97,51.64 C255.06,47.91 269.50,40.92 276.78,37.71 C287.05,33.45 298.42,29.55 305.62,27.29 C312.91,25.16 327.71,21.35 335.14,19.69 C342.56,18.20 354.34,16.13 364.91,14.93 C372.46,14.23 387.73,13.32 395.40,13.10 C403.03,13.04 421.25,13.52 425.67,13.92 C433.18,14.67 448.24,16.66 455.80,17.90 C463.33,19.30 478.15,22.56 485.45,24.40 C489.82,25.56 507.96,31.64 515.47,34.47 C522.96,37.48 537.61,43.95 544.75,47.40 C551.78,50.96 565.35,58.98 572.05,63.23 C578.67,67.65 591.59,76.93 597.81,81.74 C606.35,88.67 615.43,97.10 621.01,102.57 C626.48,108.20 637.05,119.87 642.08,125.84 C649.23,134.76 653.95,141.25 660.19,150.77 C664.27,157.34 671.99,170.86 675.59,177.71 C678.99,184.60 684.04,195.65 687.82,205.67 C690.34,212.89 694.87,227.63 696.86,235.07 C698.65,242.50 701.70,257.36 702.69,264.85 C703.54,272.40 704.67,287.66 704.96,295.35 C705.06,303.00 704.56,321.24 704.11,325.69 C703.26,333.21 700.98,348.31 699.54,355.89 C697.92,363.41 693.22,381.70 692.01,385.47 C690.80,389.23 683.93,406.90 680.85,414.00 C677.58,421.04 670.58,434.79 666.86,441.48 C664.61,445.41 654.29,460.83 649.70,467.13 C644.94,473.36 635.01,485.44 629.86,491.25 C624.62,496.95 613.35,507.69 607.48,512.92 C601.45,518.04 589.01,527.89 582.67,532.56 C573.63,538.89 562.93,545.40 556.04,549.33 C549.02,553.13 534.65,560.28 527.39,563.59 C516.65,568.18 509.17,570.99 498.52,574.48 C491.27,576.67 476.52,580.63 469.10,582.38 C461.68,583.96 446.84,586.66 439.37,587.55 C431.84,588.32 416.63,589.39 408.95,589.69 C401.30,589.83 382.47,589.53 378.60,589.27 C374.74,589.01 356.05,586.78 348.50,585.62 C333.38,582.97 312.94,577.92 311.46,577.50 Z" fill="none" stroke="rgb(255, 128, 0)" stroke-width="20.00" stroke-opacity="1.00" stroke-linejoin="round"/>
<path d="M191.74,92.25 L186.33,103.55" fill="none" stroke="rgb(255, 128, 0)" stroke-width="20.00" stroke-opacity="1.00" stroke-linejoin="round"/>
<path d="M601.45,91.41 L597.30,86.49" fill="none" stroke="rgb(255, 128, 0)" stroke-width="20.00" stroke-opacity="1.00" stroke-linejoin="round"/>
<path d="M123.08,416.64 L125.71,424.64" fill="none" stroke="rgb(255, 128, 0)" stroke-width="20.00" stroke-opacity="1.00" stroke-linejoin="round"/>
<path d="M440.88,585.31 C440.88,585.31 440.59,586.19 440.59,586.19" fill="none" stroke="rgb(255, 128, 0)" stroke-width="20.00" stroke-opacity="1.00" stroke-linejoin="round"/>
<path d="M422.73,586.12 C422.73,586.12 420.73,585.91 420.73,585.91" fill="none" stroke="rgb(255, 128, 0)" stroke-width="20.00" stroke-opacity="1.00" stroke-linejoin="round"/>
<path d="M525.56,52.37 L515.33,348.03" fill="none" stroke="rgb(255, 128, 0)" stroke-width="20.00" stroke-opacity="1.00" stroke-linejoin="round"/>
<path d="M511.92,345.30 L688.73,344.37" fill="none" stroke="rgb(255, 128, 0)" stroke-width="20.00" stroke-opacity="1.00" stroke-linejoin="round"/>
<path d="M683.18,351.25 L404.20,588.60" fill="none" stroke="rgb(255, 128, 0)" stroke-width="20.00" stroke-opacity="1.00" stroke-linejoin="round"/>
<path d="M398.80,582.38 L101.36,350.47" fill="none" stroke="rgb(255, 128, 0)" stroke-width="20.00" stroke-opacity="1.00" stroke-linejoin="round"/>
<path d="M103.05,349.31 L294.30,352.92" fill="none" stroke="rgb(255, 128, 0)" stroke-width="20.00" stroke-opacity="1.00" stroke-linejoin="round"/>
<path d="M293.47,352.45 L299.18,40.30" fill="none" stroke="rgb(255, 128, 0)" stroke-width="20.00" stroke-opacity="1.00" stroke-linejoin="round"/>
<path d="M299.61,377.44 C298.93,378.92 298.00,395.58 297.56,403.85 C297.14,411.75 296.32,426.98 295.92,434.31 C295.48,445.54 297.36,475.81 297.44,487.41 C297.44,487.41 297.64,482.67 297.64,482.67" fill="none" stroke="rgb(255, 78, 0)" stroke-width="17.20" stroke-opacity="1.00" stroke-linejoin="round"/>
<path d="M298.17,428.37 C297.26,428.76 297.13,428.39 298.16,427.08 C299.98,424.80 344.53,391.22 344.89,390.97 C345.22,390.75 345.86,390.36 346.82,389.80" fill="none" stroke="rgb(255, 78, 0)" stroke-width="17.20" stroke-opacity="1.00" stroke-linejoin="round"/>
<path d="M296.70,425.84 C296.70,425.84 296.49,427.36 296.49,427.36 C299.16,427.64 301.38,428.48 303.21,430.07 C305.63,432.19 311.34,443.83 317.37,455.44 C321.01,462.34 328.88,477.18 333.10,485.12 C338.61,495.58 338.86,496.36 339.12,498.19" fill="none" stroke="rgb(255, 78, 0)" stroke-width="17.20" stroke-opacity="1.00" stroke-linejoin="round"/>
<path d="M385.00,436.88 C384.02,434.07 383.04,432.10 381.88,431.46 C380.54,430.74 377.84,430.15 376.59,430.27 C374.08,430.60 368.31,433.13 365.47,435.08 C362.66,437.05 358.11,441.53 356.76,443.38 C354.84,446.06 352.07,452.06 351.27,455.33 C350.50,458.59 349.78,465.09 349.85,468.91 C349.90,471.44 350.64,480.76 351.47,483.78 C352.04,485.80 356.34,493.23 357.82,494.76 C361.56,498.51 371.32,503.69 374.68,504.50 C378.12,505.28 385.02,504.12 389.64,502.40 C391.35,501.73 394.18,500.62 395.30,500.19 C395.12,498.86 395.00,498.04 394.97,497.73 C394.94,497.42 394.94,497.19 394.97,497.04" fill="none" stroke="rgb(255, 78, 0)" stroke-width="17.20" stroke-opacity="1.00" stroke-linejoin="round"/>
<path d="M406.14,499.24 C407.36,493.47 410.45,478.85 412.33,469.99 C414.08,462.32 418.74,442.44 421.06,437.12 C422.71,433.49 423.18,433.12 424.41,432.85 C426.20,435.78 428.29,442.68 428.80,444.34 C435.43,466.12 442.07,485.45 447.11,495.86 C446.48,494.75 444.75,491.71 444.54,491.33 C444.41,491.08 444.31,490.86 444.24,490.66" fill="none" stroke="rgb(255, 78, 0)" stroke-width="17.20" stroke-opacity="1.00" stroke-linejoin="round"/>
<path d="M414.78,476.10 C415.23,476.23 421.10,473.77 423.94,473.78 C425.88,473.80 429.82,474.62 432.21,475.39 C434.68,476.17 437.32,476.27 439.09,475.53 C439.63,475.30 442.70,473.01 444.42,471.85" fill="none" stroke="rgb(255, 78, 0)" stroke-width="17.20" stroke-opacity="1.00" stroke-linejoin="round"/>
<path d="M470.10,393.00 C470.10,393.00 469.67,392.73 469.67,392.73 C468.47,395.16 467.67,400.97 467.56,402.08 C467.02,407.94 467.17,450.62 467.55,464.83 C468.63,487.13 471.07,493.21 471.98,495.20 C474.93,495.40 488.72,490.71 493.99,490.51 C495.91,490.43 499.51,490.82 500.44,490.81 C502.42,490.77 504.05,489.84 504.45,488.60 C504.51,488.38 504.59,487.96 504.68,487.32" fill="none" stroke="rgb(255, 78, 0)" stroke-width="17.20" stroke-opacity="1.00" stroke-linejoin="round"/>
<path d="M368.38,40.49 C368.38,40.49 368.82,36.01 368.82,36.01 C367.90,39.42 368.19,46.18 368.36,50.19 C368.61,59.09 368.01,67.29 366.63,78.39 C365.48,86.72 362.98,105.57 363.18,110.09 C363.24,111.46 363.46,114.94 363.67,116.48 C363.99,118.58 365.05,120.57 366.34,121.07 C368.57,121.85 376.07,120.40 379.75,119.70 C388.19,117.94 405.78,114.37 408.72,114.90 C409.83,115.11 410.64,115.38 411.15,115.69 C411.42,115.86 411.66,116.19 411.86,116.68" fill="none" stroke="rgb(255, 78, 0)" stroke-width="17.20" stroke-opacity="1.00" stroke-linejoin="round"/>
<path d="M373.69,167.21 C372.19,166.79 371.06,166.96 369.71,168.05 C367.10,170.25 364.29,175.79 363.74,179.20 C363.24,182.57 362.67,189.98 362.68,193.29 C362.72,196.96 364.32,204.61 365.89,207.06 C367.33,209.23 373.58,214.08 375.84,214.89 C377.44,215.43 384.05,215.92 386.99,215.34 C389.93,214.72 395.63,212.55 398.04,211.06 C400.41,209.56 404.13,205.92 405.17,204.05 C406.23,202.06 407.23,196.26 407.02,193.98 C406.79,191.86 405.02,186.08 403.70,183.66 C402.26,181.08 397.81,175.98 395.13,173.80 C392.32,171.55 387.06,168.65 383.96,168.08 C380.82,167.54 376.82,167.74 374.54,169.10 C373.74,169.59 373.18,169.97 372.86,170.26 C372.68,170.43 372.44,170.73 372.16,171.14" fill="none" stroke="rgb(255, 78, 0)" stroke-width="17.20" stroke-opacity="1.00" stroke-linejoin="round"/>
<path d="M334.34,262.55 C334.34,262.55 333.96,261.88 333.96,261.88 C336.23,262.04 339.00,263.81 341.12,266.60 C343.89,270.31 352.47,290.35 355.92,298.75 C357.36,302.11 360.29,309.02 362.46,311.65 C362.84,312.11 363.44,312.70 364.26,313.41 C365.48,313.49 366.68,312.58 367.68,310.63 C370.74,304.56 375.43,276.97 375.94,273.92 C379.06,280.48 387.24,297.40 389.65,300.55 C391.53,302.96 396.93,308.23 399.08,309.26 C401.03,310.15 407.61,310.41 409.99,309.42 C412.24,308.45 417.01,303.78 418.42,301.50 C419.62,299.50 421.80,293.61 422.41,289.75 C422.85,286.84 423.21,279.23 423.19,274.91 C423.12,268.71 421.54,263.74 421.55,263.76" fill="none" stroke="rgb(255, 78, 0)" stroke-width="17.20" stroke-opacity="1.00" stroke-linejoin="round"/>
</g>
</svg>
