<?xml version="1.0" encoding="UTF-8" standalone="no"?>
<!DOCTYPE svg PUBLIC "-//W3C//DTD SVG 1.1//EN" "http://www.w3.org/Graphics/SVG/1.1/DTD/svg11.dtd">
<svg width="800.00" height="600.00" viewBox="0.00 0.00 800.00 600.00" xmlns="http://www.w3.org/2000/svg" xmlns:xlink="http://www.w3.org/1999/xlink">
<g stroke-linecap="round" id="Capa_2_-_copia">
<path d="M311.46,577.50 C307.43,576.33 288.80,569.85 281.30,566.93 C273.86,563.84 259.33,557.22 252.25,553.69 C248.10,551.57 231.81,541.80 225.15,537.46 C218.56,532.95 205.80,523.55 199.66,518.68 C193.63,513.73 182.29,503.06 176.76,497.51 C171.34,491.80 160.93,480.03 156.00,474.03 C149.31,465.48 142.43,455.35 138.28,448.84 C134.27,442.20 126.71,428.60 123.21,421.73 C118.33,411.52 115.26,404.20 111.42,393.61 C108.99,386.34 104.63,371.53 102.74,364.09 C101.05,356.66 98.71,344.83 97.39,334.26 C96.63,326.69 95.68,311.37 95.49,303.70 C95.49,296.07 96.02,280.94 96.81,273.43 C97.76,265.90 100.24,250.78 101.77,243.22 C103.47,235.75 108.25,218.07 109.73,213.83 C112.33,206.67 118.11,192.43 121.29,185.34 C124.63,178.35 133.52,161.51 135.59,158.09 C137.66,154.68 148.50,138.89 153.18,132.63 C158.02,126.44 168.08,114.52 173.28,108.77 C176.40,105.42 190.09,92.56 196.04,87.39 C202.15,82.31 214.67,72.63 221.06,68.04 C227.50,63.59 241.02,55.50 247.97,51.64 C255.06,47.91 269.50,40.92 276.78,37.71 C287.05,33.45 298.42,29.55 305.62,27.29 C312.91,25.16 327.71,21.35 335.14,19.69 C342.56,18.20 354.34,16.13 364.91,14.93 C372.46,14.23 387.73,13.32 395.40,13.10 C403.03,13.04 421.25,13.52 425.67,13.92 C433.18,14.67 448.24,16.66 455.80,17.90 C463.33,19.30 478.15,22.56 485.45,24.40 C489.82,25.56 507.96,31.64 515.47,34.47 C522.96,37.48 537.61,43.95 544.75,47.40 C551.78,50.96 565.35,58.98 572.05,63.23 C578.67,67.65 591.59,76.93 597.81,81.74 C606.35,88.67 615.43,97.10 621.01,102.57 C626.48,108.20 637.05,119.87 642.08,125.84 C649.23,134.76 653.95,141.25 660.19,150.77 C664.27,157.34 671.99,170.86 675.59,177.71 C678.99,184.60 684.04,195.65 687.82,205.67 C690.34,212.89 694.87,227.63 696.86,235.07 C698.65,242.50 701.70,257.36 702.69,264.85 C703.54,272.40 704.67,287.66 704.96,295.35 C705.06,303.00 704.56,321.24 704.11,325.69 C703.26,333.21 700.98,348.31 699.54,355.89 C697.92,363.41 693.22,381.70 692.01,385.47 C690.80,389.23 683.93,406.90 680.85,414.00 C677.58,421.04 670.58,434.79 666.86,441.48 C664.61,445.41 654.29,460.83 649.70,467.13 C644.94,473.36 635.01,485.44 629.86,491.25 C624.62,496.95 613.35,507.69 607.48,512.92 C601.45,518.04 589.01,527.89 582.67,532.56 C573.63,538.89 562.93,545.40 556.04,549.33 C549.02,553.13 534.65,560.28 527.39,563.59 C516.65,568.18 509.17,570.99 498.52,574.48 C491.27,576.67 476.52,580.63 469.10,582.38 C461.68,583.96 446.84,586.66 439.37,587.55 C431.84,588.32 416.63,589.39 408.95,589.69 C401.30,589.83 382.47,589.53 378.60,589.27 C374.74,589.01 356.05,586.78 348.50,585.62 C333.38,582.97 312.94,577.92 311.46,577.50 Z" fill="none" stroke="rgb(29, 201, 42)" stroke-width="20.00" stroke-opacity="1.00" stroke-linejoin="round"/>
<path d="M191.74,92.25 L400.00,586.00" fill="none" stroke="rgb(29, 201, 42)" stroke-width="20.00" stroke-opacity="1.00" stroke-linejoin="round"/>
<path d="M396.87,579.73 L596.00,86.00" fill="none" stroke="rgb(29, 201, 42)" stroke-width="20.00" stroke-opacity="1.00" stroke-linejoin="round"/>
</g>
</svg>
